<svg width="129" height="48" viewBox="0 0 129 48" fill="none" xmlns="http://www.w3.org/2000/svg">
<rect width="129" height="48" rx="10" fill="black"/>
<path d="M20.7773 27.5703C20.7773 27.2422 20.7266 26.9492 20.625 26.6914C20.5312 26.4258 20.3555 26.1875 20.0977 25.9766C19.8477 25.7578 19.4922 25.5469 19.0312 25.3438C18.5781 25.1328 17.9922 24.9141 17.2734 24.6875C16.4766 24.4375 15.7344 24.1562 15.0469 23.8438C14.3594 23.5312 13.7539 23.168 13.2305 22.7539C12.7148 22.3398 12.3125 21.8633 12.0234 21.3242C11.7344 20.7773 11.5898 20.1445 11.5898 19.4258C11.5898 18.7227 11.7383 18.082 12.0352 17.5039C12.3398 16.9258 12.7695 16.4297 13.3242 16.0156C13.8789 15.5938 14.5312 15.2695 15.2812 15.043C16.0391 14.8164 16.875 14.7031 17.7891 14.7031C19.0547 14.7031 20.1484 14.9336 21.0703 15.3945C22 15.8555 22.7188 16.4805 23.2266 17.2695C23.7344 18.0586 23.9883 18.9453 23.9883 19.9297H20.7773C20.7773 19.3984 20.6641 18.9297 20.4375 18.5234C20.2188 18.1172 19.8828 17.7969 19.4297 17.5625C18.9844 17.3281 18.4219 17.2109 17.7422 17.2109C17.0859 17.2109 16.5391 17.3086 16.1016 17.5039C15.6719 17.6992 15.3477 17.9648 15.1289 18.3008C14.918 18.6367 14.8125 19.0117 14.8125 19.4258C14.8125 19.7383 14.8867 20.0195 15.0352 20.2695C15.1836 20.5117 15.4062 20.7422 15.7031 20.9609C16 21.1719 16.3672 21.3711 16.8047 21.5586C17.25 21.7383 17.7656 21.918 18.3516 22.0977C19.2891 22.3789 20.1094 22.6914 20.8125 23.0352C21.5234 23.3789 22.1133 23.7695 22.582 24.207C23.0586 24.6445 23.4141 25.1367 23.6484 25.6836C23.8906 26.2305 24.0117 26.8516 24.0117 27.5469C24.0117 28.2812 23.8672 28.9375 23.5781 29.5156C23.2891 30.0938 22.875 30.5859 22.3359 30.9922C21.7969 31.3984 21.1484 31.707 20.3906 31.918C19.6406 32.1289 18.8008 32.2344 17.8711 32.2344C17.043 32.2344 16.2227 32.125 15.4102 31.9062C14.6055 31.6797 13.875 31.3438 13.2188 30.8984C12.5625 30.4453 12.0391 29.875 11.6484 29.1875C11.2578 28.4922 11.0625 27.6797 11.0625 26.75H14.2969C14.2969 27.2891 14.3828 27.75 14.5547 28.1328C14.7344 28.5078 14.9844 28.8164 15.3047 29.0586C15.6328 29.293 16.0156 29.4648 16.4531 29.5742C16.8906 29.6836 17.3633 29.7383 17.8711 29.7383C18.5273 29.7383 19.0664 29.6484 19.4883 29.4688C19.918 29.2812 20.2383 29.0234 20.4492 28.6953C20.668 28.3672 20.7773 27.9922 20.7773 27.5703ZM32.4961 28.6602L36.75 14.9375H40.3242L34.3008 32H31.9219L32.4961 28.6602ZM28.5703 14.9375L32.8008 28.6602L33.4102 32H31.0078L25.0078 14.9375H28.5703ZM55.2305 23.1758V29.8203C54.9805 30.1406 54.5859 30.4883 54.0469 30.8633C53.5156 31.2383 52.8203 31.5625 51.9609 31.8359C51.1016 32.1016 50.0469 32.2344 48.7969 32.2344C47.7109 32.2344 46.7188 32.0547 45.8203 31.6953C44.9219 31.3281 44.1484 30.793 43.5 30.0898C42.8516 29.3867 42.3516 28.5273 42 27.5117C41.6484 26.4961 41.4727 25.3359 41.4727 24.0312V22.9062C41.4727 21.6016 41.6367 20.4414 41.9648 19.4258C42.3008 18.4102 42.7773 17.5508 43.3945 16.8477C44.0195 16.1445 44.7656 15.6094 45.6328 15.2422C46.5078 14.875 47.4844 14.6914 48.5625 14.6914C50.0078 14.6914 51.1953 14.9297 52.125 15.4062C53.0625 15.8828 53.7812 16.5391 54.2812 17.375C54.7812 18.2031 55.0938 19.1562 55.2188 20.2344H52.0781C51.9922 19.6406 51.8203 19.1211 51.5625 18.6758C51.3047 18.2227 50.9375 17.8711 50.4609 17.6211C49.9922 17.3633 49.3828 17.2344 48.6328 17.2344C48 17.2344 47.4414 17.3594 46.957 17.6094C46.4727 17.8594 46.0664 18.2227 45.7383 18.6992C45.4102 19.1758 45.1602 19.7656 44.9883 20.4688C44.8242 21.1719 44.7422 21.9766 44.7422 22.8828V24.0312C44.7422 24.9453 44.8359 25.7578 45.0234 26.4688C45.2109 27.1719 45.4805 27.7656 45.832 28.25C46.1914 28.7266 46.6328 29.0898 47.1562 29.3398C47.6875 29.582 48.2891 29.7031 48.9609 29.7031C49.5703 29.7031 50.0742 29.6523 50.4727 29.5508C50.8789 29.4414 51.2031 29.3125 51.4453 29.1641C51.6875 29.0156 51.875 28.8711 52.0078 28.7305V25.5312H48.6211V23.1758H55.2305ZM67.6875 14.9375V32H64.4648V14.9375H67.6875ZM81.1523 26.3867H84.375C84.2891 27.5273 83.9727 28.5391 83.4258 29.4219C82.8789 30.2969 82.1172 30.9844 81.1406 31.4844C80.1641 31.9844 78.9805 32.2344 77.5898 32.2344C76.5195 32.2344 75.5547 32.0469 74.6953 31.6719C73.8438 31.2891 73.1133 30.7461 72.5039 30.043C71.9023 29.332 71.4414 28.4805 71.1211 27.4883C70.8008 26.4883 70.6406 25.3672 70.6406 24.125V22.8242C70.6406 21.582 70.8047 20.4609 71.1328 19.4609C71.4609 18.4609 71.9297 17.6094 72.5391 16.9062C73.1562 16.1953 73.8945 15.6484 74.7539 15.2656C75.6211 14.8828 76.5898 14.6914 77.6602 14.6914C79.0508 14.6914 80.2266 14.9492 81.1875 15.4648C82.1484 15.9727 82.8945 16.6719 83.4258 17.5625C83.957 18.4531 84.2773 19.4766 84.3867 20.6328H81.1641C81.1016 19.9141 80.9453 19.3047 80.6953 18.8047C80.4531 18.3047 80.0859 17.9258 79.5938 17.668C79.1094 17.4023 78.4648 17.2695 77.6602 17.2695C77.0352 17.2695 76.4844 17.3867 76.0078 17.6211C75.5391 17.8555 75.1484 18.207 74.8359 18.6758C74.5234 19.1367 74.2891 19.7148 74.1328 20.4102C73.9766 21.0977 73.8984 21.8945 73.8984 22.8008V24.125C73.8984 24.9922 73.9688 25.7695 74.1094 26.457C74.25 27.1445 74.4688 27.7266 74.7656 28.2031C75.0625 28.6797 75.4453 29.043 75.9141 29.293C76.3828 29.543 76.9414 29.668 77.5898 29.668C78.3789 29.668 79.0195 29.543 79.5117 29.293C80.0117 29.043 80.3906 28.6758 80.6484 28.1914C80.9141 27.707 81.082 27.1055 81.1523 26.3867ZM100.688 23.0352V23.9141C100.688 25.2031 100.516 26.3633 100.172 27.3945C99.8281 28.418 99.3398 29.2891 98.707 30.0078C98.0742 30.7266 97.3203 31.2773 96.4453 31.6602C95.5703 32.043 94.5977 32.2344 93.5273 32.2344C92.4727 32.2344 91.5039 32.043 90.6211 31.6602C89.7461 31.2773 88.9883 30.7266 88.3477 30.0078C87.707 29.2891 87.2109 28.418 86.8594 27.3945C86.5078 26.3633 86.332 25.2031 86.332 23.9141V23.0352C86.332 21.7383 86.5078 20.5781 86.8594 19.5547C87.2109 18.5312 87.7031 17.6602 88.3359 16.9414C88.9688 16.2148 89.7227 15.6602 90.5977 15.2773C91.4805 14.8945 92.4492 14.7031 93.5039 14.7031C94.5742 14.7031 95.5469 14.8945 96.4219 15.2773C97.2969 15.6602 98.0508 16.2148 98.6836 16.9414C99.3242 17.6602 99.8164 18.5312 100.16 19.5547C100.512 20.5781 100.688 21.7383 100.688 23.0352ZM97.4297 23.9141V23.0117C97.4297 22.082 97.3438 21.2656 97.1719 20.5625C97 19.8516 96.7461 19.2539 96.4102 18.7695C96.0742 18.2852 95.6602 17.9219 95.168 17.6797C94.6758 17.4297 94.1211 17.3047 93.5039 17.3047C92.8789 17.3047 92.3242 17.4297 91.8398 17.6797C91.3633 17.9219 90.957 18.2852 90.6211 18.7695C90.2852 19.2539 90.0273 19.8516 89.8477 20.5625C89.6758 21.2656 89.5898 22.082 89.5898 23.0117V23.9141C89.5898 24.8359 89.6758 25.6523 89.8477 26.3633C90.0273 27.0742 90.2852 27.6758 90.6211 28.168C90.9648 28.6523 91.3789 29.0195 91.8633 29.2695C92.3477 29.5195 92.9023 29.6445 93.5273 29.6445C94.1523 29.6445 94.707 29.5195 95.1914 29.2695C95.6758 29.0195 96.082 28.6523 96.4102 28.168C96.7461 27.6758 97 27.0742 97.1719 26.3633C97.3438 25.6523 97.4297 24.8359 97.4297 23.9141ZM117.129 14.9375V32H113.895L106.641 20.1641V32H103.418V14.9375H106.641L113.918 26.7852V14.9375H117.129Z" fill="white"/>
</svg>
